/* XPM */
static char *result[] = {
/* columns rows colors chars-per-pixel */
"64 64 201 2 ",
"   c #3B1309",
".  c #3D280E",
"X  c #42190E",
"o  c #423512",
"O  c #532E0E",
"+  c #4D501C",
"@  c #4D4D1B",
"#  c #754917",
"$  c #4E5624",
"%  c #444822",
"&  c #784429",
"*  c #795429",
"=  c #586B27",
"-  c #766225",
";  c #67652C",
":  c #8E420E",
">  c #97470F",
",  c #9D4B11",
"<  c #A34E10",
"1  c #A95314",
"2  c #B75A12",
"3  c #83641C",
"4  c #BF651C",
"5  c #814728",
"6  c #8C5738",
"7  c #905A3A",
"8  c #9E623E",
"9  c #896D26",
"0  c #B8692D",
"q  c #C76515",
"w  c #D56D14",
"e  c #D9741C",
"r  c #EC7916",
"t  c #ED7C1B",
"y  c #E47618",
"u  c #F57F17",
"i  c #F47F19",
"p  c #CF742A",
"a  c #D87A28",
"s  c #C27D32",
"d  c #C87737",
"f  c #D37B34",
"g  c #C26F2E",
"h  c #E67E23",
"j  c #9C6342",
"k  c #B77A4B",
"l  c #B17C51",
"z  c #AA714C",
"x  c #9E7B61",
"c  c #A17E65",
"v  c #C57C42",
"b  c #698D36",
"n  c #778936",
"m  c #689335",
"M  c #719F3C",
"N  c #74A33E",
"B  c #7E8D41",
"V  c #7DAB43",
"C  c #7BA748",
"Z  c #908232",
"A  c #F6831B",
"S  c #F7881F",
"D  c #F58017",
"F  c #EE801F",
"G  c #C88738",
"H  c #D88638",
"J  c #EA862A",
"K  c #F38623",
"L  c #F78A22",
"P  c #F88D25",
"I  c #F68D2C",
"U  c #F88D29",
"Y  c #F89027",
"T  c #F7902A",
"R  c #F9932B",
"E  c #FA982F",
"W  c #E78A34",
"Q  c #EF9D3C",
"!  c #E8943D",
"~  c #F39533",
"^  c #F89233",
"/  c #FA9C33",
"(  c #F39B3C",
")  c #FA9D3B",
"_  c #F59C37",
"`  c #FBA037",
"'  c #FCA43B",
"]  c #FCA83F",
"[  c #BA885F",
"{  c #8BB54B",
"}  c #868571",
"|  c #A6856C",
" . c #A8866D",
".. c #BC8C66",
"X. c #AC8B73",
"o. c #AF8F78",
"O. c #B3937B",
"+. c #BD9475",
"@. c #CC874D",
"#. c #D98942",
"$. c #C78654",
"%. c #DB9254",
"&. c #D89558",
"*. c #D28E53",
"=. c #EA9245",
"-. c #FA9E43",
";. c #F99F49",
":. c #F69B45",
">. c #E49B5C",
",. c #EBA443",
"<. c #EBA846",
"1. c #FCA544",
"2. c #FDAC43",
"3. c #F9A14A",
"4. c #FCAD4C",
"5. c #F2A546",
"6. c #FEB046",
"7. c #FFB44C",
"8. c #E8A85B",
"9. c #FAA555",
"0. c #F6A853",
"q. c #FCAD53",
"w. c #F5A65B",
"e. c #FBAC5D",
"r. c #F5A858",
"t. c #FEB353",
"y. c #FDB35B",
"u. c #FFB95C",
"i. c #FFB852",
"p. c #D79A65",
"a. c #C79B78",
"s. c #D39D71",
"d. c #E29E64",
"f. c #D6A57C",
"g. c #E1A06A",
"h. c #E8A764",
"j. c #F2AE61",
"k. c #F4AE6C",
"l. c #FCAF64",
"z. c #FCB264",
"x. c #FEBA63",
"c. c #FCB66C",
"v. c #FEBC6C",
"b. c #EDAE7A",
"n. c #F1B475",
"m. c #FBB671",
"M. c #FDBA74",
"N. c #F6BA78",
"B. c #E9B37E",
"V. c #A2C257",
"C. c #FFC175",
"Z. c #BB9C85",
"A. c #B99A83",
"S. c #A49D82",
"D. c #BEA18B",
"F. c #C5A389",
"G. c #D4AA87",
"H. c #C6A994",
"J. c #C7AB94",
"K. c #D5AF91",
"L. c #CEB29D",
"P. c #D2B298",
"I. c #E3B58A",
"U. c #F9BE83",
"Y. c #F8BF89",
"T. c #F0B883",
"R. c #CFB4A0",
"E. c #B7C88C",
"W. c #F9C18B",
"Q. c #FBC78A",
"!. c #FAC694",
"~. c #FACB9C",
"^. c #F4C493",
"/. c #FCD29F",
"(. c #FACEA2",
"). c #F0CAA7",
"_. c #FBD2A4",
"`. c #FCD4AC",
"'. c #F3D2B2",
"]. c #FBD6B0",
"[. c #FCDAB6",
"{. c #FCDCBA",
"}. c #F3D6BA",
"|. c #FEE1BE",
" X c #DFD3CF",
".X c #DFD4D0",
"XX c #EDD7C4",
"oX c #E4D6CE",
"OX c #EBDACC",
"+X c #FADFC2",
"@X c #F4DEC8",
"#X c #E4D8D0",
"$X c #FDE1C2",
"%X c #FEE5C9",
"&X c #FFE9CD",
"*X c #FEECD4",
"=X c #F6EBDC",
"-X c #FEEFDA",
";X c #FFF1DC",
":X c #FFF3E0",
">X c None",
/* pixels */
">X>X>X>X>X>X>X>X>X>X>X>X>X>X>X>X>X>X>X>X>X>X>X>X>X>X>X>X>X>X>X>X>X>X>X>X>X>X>X>X>X>X>X>X>X>X>X>X>X>X>X>X>X>X>X>X>X>X>X>X>X>X>X>X",
">X>X>X>X>X>X>X>X>X>X>X>X>X>X>X>X>X>X>X>X>X>X>X>X>X>X>X>X>X>X>X>X>X>X>X>X>X>X>X>X>X>X>X>X>X>X>X>X>X>X>X>X>X>X>X>X>X>X>X>X>X>X>X>X",
">X>X>X>X>X>X>X>X>X>X>X>X>X>X>X>X>X>X>X>X>X>X>X>X>X>X>X>X>X>X>X>X>X>X>X>X>X>X>X>X>X>X>X>X>X>X>X>X>X>X>X>X>X>X>X>X>X>X>X>X>X>X>X>X",
">X>X>X>X>X>X>X>X>X>X>X>X>X>Xr i >X>X>X>X>X>X>X>X>X>X>X>X>X>X>X>X>X>X>X>X>X>X>X>X>X>Xi i t >X>X>X>X>X>X>X>X>X>X>X>X>X>X>X>X>X>X>X",
">X>X>X>X>X>X>X>X>X>X>X>X>Xy r i u u >X>X>X>X>X>X>X>X>X>X>X>X>X>X>X>X>X>X>X>X>X>X>Xu r t r >X>X>X>X>X>X>X>X>X>X>X>X>X>X>X>X>X>X>X",
">X>X>X>X>X>X>X>X>X>X>X>X>Xy W p.W i i >X>X>X>X>X>X>X>X>X>X>X>X>X>X>X>X>X>X>X>X>Xi t =.p.y y >X>X>X>X>X>X>X>X>X>X>X>X>X>X>X>X>X>X",
">X>X>X>X>X>X>X>X>X>X>X>X>Xe g.R.L.d.i i >X>X>X>X>X>X>X>X>X>X>X>X>X>X>X>X>X>Xi i J b.R.R.W w >X>X>X>X>X>X>X>X>X>X>X>X>X>X>X>X>X>X",
">X>X>X>X>X>X>X>X>X>X>X>Xw e G.H.H.L.g.K u >X>X>X>X>X>X>X>X>X>X>X>X>X>X>X>X>Xi J K.L.J.J.%.w >X>X>X>X>X>X>X>X>X>X>X>X>X>X>X>X>X>X",
">X>X>X>X>X>X>X>X>X>X>X>Xq a J.F.D.F.J.P.! u >X>X>X>XD D D D D D i u >X>Xi i >.P.H.Z.Z.D.s.q >X>X>X>X>X>X>X>X>X>X>X>X>X>X>X>X>X>X",
">X>X>X>X>X>X>X>X>X>X>X>Xq p H.A.O.O.D.J.K.=.i u D D D D D D D D D u u u i >.L.H.Z.A.O.Z.f.w q >X>X>X>X>X>X>X>X>X>X>X>X>X>X>X>X>X",
">X>X>X>X>X>X>X>X>X>X>X>X2 d H.o. . .O.O.H.G.K u D D D D D D D D A u u A D ! a.+.o. . .A.F.q 2 >X>X>X>X>X>X>X>X>X>X>X>X>X>X>X>X>X",
">X>X>X>X>X>X>X>X>X>X>X>X2 d D.X.x |  . .*.J u i D S S S S S S S S A A A D D K @.| x x o.F.4 2 >X>X>X>X>X>X>X>X>X>X>X>X>X>X>X>X>X",
">X>X>X>X>X>X>X>X>X>X>X>X1 0 F.| x x k H D D D S P P P E E Y Y E Y P P S S S A D a l x X.Z.2 1 >X>X>X>X>X>X>X>X>X>X>X>X>X>X>X>X>X",
">X>X>X>X>X>X>X>X>X>X>X>X< 0 Z.| x k F D S S Y Y Y R R ` ` E E ' E R R R P P S S A h l  .a.1 >X>X>X>X>X>X>X>X>X>X>X>X>X>X>X>X>X>X",
">X>X>X>X>X>X>X>X>X>X>X>X> 1 Z.| [ r D S P Y / ` E / / ] ] ` ] ] ' / E / / E Y P L D A @.$., >X>X>X>X>X>X>X>X>X>X>X>X>X>X>X>X>X>X",
">X>X>X>X>X>X>X>X>X>X>X>X: , +...F S S Y E ` ] ] ' ` ' ] ] ] ] 6.] ` ` ] ] ] ` E L L A K g > >X>X>X>X>X>X>X>X>X>X>X>X>X>X>X>X>X>X",
">X>X>X>X>X>X>X>X>X>X>X>X>X: p K A L R ` ] ] 6.6.] ] ] 7.7.] ] 7.2.] ] 6.6.2.] ] ` Y S S t q >X>X>X>X>X>X>X>X>X>X>X>X>X>X>X>X>X>X",
">X>X>X>X>X>X>X>X>X>X>X>X>X< r S L R ` ] 2.6.6.6.7.] ] 7.7.] 6.7.6.] 6.6.6.6.2.2.] ` R L D D >X>X>X>X>X>X>X>X>X>X>X>X>X>X>X>X>X>X",
">X>X>X>X>X>X>X>X>X>X>X>X>Xu A A E ` ] ] 6.6.6.6.7.6.6.7.i.7.] 7.7.6.7.7.7.6.6.2.] ] ` R S A D >X>X>X>X>X>X>X>X>X>X>X>X>X>X>X>X>X",
">X>X>X>X>X>X>X>X>X>X>X>X>XA S P _ ' 2.2.6.6.7.7.i.7.6.7.7.7.i.i.7.6.7.7.7.7.6.6.2.] ' / P S D D >X>X>X>X>X>X>X>X>X>X>X>X>X>X>X>X",
">X>X>X>X>X>X>X>X>X>X>X>Xu A P / ` ] 2.4.7.y.u.x.i.i.i.7.7.7.7.7.7.i.u.u.u.x.t.t.6.2.] ` E L A D >X>X>X>X>X>X>X>X>X>X>X>X>X>X>X>X",
">X>X>X>X>X>X>X>X>X>X>X>XA S R / ' ] 2.7.u.v.C.C.C.u.i.i.7.7.7.i.7.i.x.C.C.C.v.u.7.2.] ] / Y A D >X>X>X>X>X>X>X>X>X>X>X>X>X>X>X>X",
">X>X>X>X>X>X>X>X>X>X>Xu A S E ` ] 2.6.u.M.c.z.e.i.C.i.i.i.7.7.7.t.u.x.y.l.l.c.M.y.7.] ] ` E L A i >X>X>X>X>X>X>X>X>X>X>X>X>X>X>X",
">X>X>X>X>X>X>X>X>X>X>Xu A P E ` ' 2.q.1.R K D i S E i.i.7.i.7.7.i.q.U A D D L I 1.4.2.] ` E P A u >X>X>X>X>X>X>X>X>X>X>X>X>X>X>X",
">X>X>X>X>X>X>X>X>X>X>Xi A R / ` ] ) U U e X ; } $ 3 a 2.i.7.7.i.6.a 9 O.% b o e P U ) ' ` / P A u >X>X>X>X>X>X>X>X>X>X>X>X>X>X>X",
">X>X>X>X>X>X>X>X>X>X>Xi A R / ) ` 1.1.1.s o C } b b # ( 7.7.7.7.` 3 V E.$ V + G 2.1.1.) ` E R A u >X>X>X>X>X>X>X>X>X>X>X>X>X>X>X",
">X>X>X>X>X>X>X>X>X>X>XD A R / ` 1.2.6.6.G + { B V.N o s i.7.7.i.G + V V.M V $ G 6.4.2.1.` E P A A >X>X>X>X>X>X>X>X>X>X>X>X>X>X>X",
">X>X>X>X>X>X>X>X>X>X>Xi A P / ` ] 2.2.6.,.- M { { m . s i.7.7.7.0 . m V V m - <.6.2.2.' ` / P A u >X>X>X>X>X>X>X>X>X>X>X>X>X>X>X",
">X>X>X>X>X>X>X>X>X>X>Xu A L R / 1.2.4.7.4.,.Z n n - : Q 7.i.7.i.:.: # ; ; 9 ,.4.4.4.2.1.) R L A u >X>X>X>X>X>X>X>X>X>X>X>X>X>X>X",
">X>X>X>X>X>X>X>X>X>X>Xu A L R ) 1.4.q.t.t.7.6.<.5./ A ) 7.7.i.i.] A ' 5.Q 7.4.t.t.q.4.1.) R A A u >X>X>X>X>X>X>X>X>X>X>X>X>X>X>X",
">X>X>X>X>X>X>X>X>X>X>Xu u A ^ -.9.y.z.z.y.t.6.7.7.1.A ) j.8.8.8.( A 1.6.7.7.t.y.z.z.e.q.) R A A u >X>X>X>X>X>X>X>X>X>X>X>X>X>X>X",
">X>X>X>X>X>X>X>X>X>X>X>Xu A ^ 3.l.c.M.m.z.y.t.6.7.3.I *.........*.J 5.7.4.t.t.z.m.M.c.l.;.^ A u >X>X>X>X>X>X>X>X>X>X>X>X>X>X>X>X",
">X>X>X>X>X>X>X>X>X>X>X>Xp a f #.%.g.b.n.j.y.q.i.Q.M.#.& * z z & & #.x.Q.i.t.y.j.b.b.d.%.#.f a p >X>X>X>X>X>X>X>X>X>X>X>X>X>X>X>X",
">X>X>X>X>X>X>X>X>X>X>X>X>XK I =.%.@.$.$.p.h.j.(.%X_.h.&   j 6   5 h.~.|./.e.h.p.$.$.*.%.=.I A >X>X>X>X>X>X>X>X>X>X>X>X>X>X>X>X>X",
">X>X>X>X>X>X>X>X>X>X>X>X>X>XK ^ ;.9.q.e.0.0.N.$X*X&X`.T.7 j j 6 B.`.%X*X$XN.0.0.e.e.r.3.^ U >X>X>X>X>X>X>X>X>X>X>X>X>X>X>X>X>X>X",
">X>X>X>X>X>X>X>X>X>X>X>X>X>X>Xf d d k $.&.8.n.[.&X*X*X%XI.j j I.|.&X*X&X}.n.8.&.@.v v d f 0 >X>X>X>X>X>X>X>X>X>X>X>X>X>X>X>X>X>X",
">X>X>X>X>X>X>X>X>X>X>X>X>X>X>Xt K I U U ~ =.0.^.[.%X-X;X;X*X*X;X-X-X%X{.^.0.! ~ Y U I R R W >X>X>X>X>X>X>X>X>X>X>X>X>X>X>X>X>X>X",
">X>X>X>X>X>X>X>X>X>X>X>X>X>X>XA L I h H #.! ~ r.~.{.&X*X;X-X;X;X*X%X[.~.0.~ ! #.H W _ ` _ / >X>X>X>X>X>X>X>X>X>X>X>X>X>X>X>X>X>X",
">X>X>X>X>X>X>X>X>X>X>X>X>X>X>Xa p f H ~ j.k.:.I ;.m.Q.[.-X-X-X-X[.Q.n.3.T :.k.y.5.Q H G W ~ >X>X>X>X>X>X>X>X>X>X>X>X>X>X>X>X>X>X",
">X>X>X>X>X>X>X>X>X>X>X>X>X>Xg h K P E / ^.'.).).T.k.r.k./.[.[./.k.w.k.T.).).'.W.] 6.] ` ! W W >X>X>X>X>X>X>X>X>X>X>X>X>X>X>X>X>X",
">X>X>X>X>X>X>X>X>X>X>X>X>X>XA S Y R E ) ~.'.}.}.XXOXoX#XoX X XoXoX#XOXXXXX}.'.~.2.2.2.` ` ` / >X>X>X>X>X>X>X>X>X>X>X>X>X>X>X>X>X",
">X>X>X>X>X>X>X>X>X>X>X>X>X>XA P Y R / _ _.].{.@XOXOXOX#X#X X.X.X#XOXOX@X+X+X{.`.2.2.2.' ` ` / E >X>X>X>X>X>X>X>X>X>X>X>X>X>X>X>X",
">X>X>X>X>X>X>X>X>X>X>X>X>X>XA L T R / ` _.].$X%X&X-X-X;X=X=X=X=X=X-X-X*X%X$X{.].6.2.2.1.' ` / E >X>X>X>X>X>X>X>X>X>X>X>X>X>X>X>X",
">X>X>X>X>X>X>X>X>X>X>X>X>X>XS P R E / 4.`.[.$X%X&X-X;X;X:X:X:X:X;X-X*X*X%X$X{.`.x.2.2.] ' ` / E >X>X>X>X>X>X>X>X>X>X>X>X>X>X>X>X",
">X>X>X>X>X>X>X>X>X>X>X>X>X>XA P R E ) c.`.[.+X%X&X*X;X;X:X:X:X:X;X-X*X*X%X$X{.].!.6.2.] ' ` / / R >X>X>X>X>X>X>X>X>X>X>X>X>X>X>X",
">X>X>X>X>X>X>X>X>X>X>X>X>XA S P R E / U.`.[.{.%X*X-X;X;X:X:X:X:X;X-X*X*X%X$X{.].(.x.2.] ' ' ` / R P >X>X>X>X>X>X>X>X>X>X>X>X>X>X",
">X>X>X>X>X>X>X>X>X>X>X>X>XA S P R E 3.Q.`.[.$X%X*X*X;X;X:X:X:X:X;X-X*X&X%X$X{.`.(.Q.2.2.' ' _ E R U L >X>X>X>X>X>X>X>X>X>X>X>X>X",
">X>X>X>X>X>X>X>X>X>X>X>X>XA A P R E q.~.`.[.$X%X&X-X;X;X:X:X:X:X;X-X-X*X%X+X{.].(.!.q.] ' ' ` E R P L D >X>X>X>X>X>X>X>X>X>X>X>X",
">X>X>X>X>X>X>X>X>X>X>X>X>XD L L R E c.~.`.[.+X%X&X*X;X;X:X:X:X:X;X;X*X&X%X$X{.].(.!.c.] ' ` / / R P S D u >X>X>X>X>X>X>X>X>X>X>X",
">X>X>X>X>X>X>X>X>X>X>X>X>XD A L Y E M.~.`.[.$X%X*X*X;X;X:X:X:X:X;X-X*X*X%X$X{.].(.~.N.4.' ` / E R P A A A u >X>X>X>X>X>X>X>X>X>X",
">X>X>X>X>X>X>X>X>X>X>X>X>XD L L R ^ U.~.`.[.$X%X*X*X;X;X:X:X:X:X;X-X*X*X%X+X{.].(.~.W.y.' ` / E R L L A u u >X>X>X>X>X>X>X>X>X>X",
">X>X>X>X>X>X>X>X>X>X>X>Xi u A L U / W.~.`.[.+X%X*X*X;X;X:X:X:X:X:X-X*X*X%X$X{.].(.!.W.m.` ` / E P P A D u u u >X>X>X>X>X>X>X>X>X",
">X>X>X>X>X>X>X>X>X>X>X>Xu u A A P ) !.~.`.[.{.%X*X*X;X;X;X:X:X:X;X-X-X*X%X+X{.].(.!.!.U.' ) / R Y L A u u u u >X>X>X>X>X>X>X>X>X",
">X>X>X>X>X>X>X>X>X>X>X>Xu A S A P -.W.~.`.[.$X%X*X*X;X;X:X:X:X:X;X-X*X*X%X$X{.].(.!.Y.Y.1./ E R P L A u u u u u >X>X>X>X>X>X>X>X",
">X>X>X>X>X>X>X>X>X>X>X>Xu u u S L ;.W.~.`.[.$X%X&X*X;X;X:X:X:X:X;X-X*X*X%X$X{.`.(.~.Y.Y.e./ R R L A u u u u u u >X>X>X>X>X>X>X>X",
">X>X>X>X>X>X>X>X>X>X>X>Xu u u u L 3.!.~.`.[.+X%X*X*X;X;X:X:X:X:X;X-X*X&X%X+X{.].(.!.Y.Y.c.E R U L S u u u u A u >X>X>X>X>X>X>X>X",
">X>X>X>X>X>X>X>X>X>X>X>Xu u u A A 9.!.~.`.].$X%X*X*X;X;X:X:X:X:X:X-X-X*X$X$X{.`.(.!.W.Y.M.) R L L D u D u u u u u >X>X>X>X>X>X>X",
">X>X>X>X>X>X>X>X>X>X>X>Xu u u u A w.!.!.(.].{.%X*X*X;X;X:X:X:X:X;X-X*X&X%X$X{.`.~.!.Y.Y.U.-.P L A D u u u D u u u >X>X>X>X>X>X>X",
">X>X>X>X>X>X>X>X>X>X>X>Xu u u u D j.!.!.`.].{.$X&X*X;X;X:X:X:X:X;X-X-X*X%X+X[.`.~.!.W.Y.U.;.L L D u u u u u D u u >X>X>X>X>X>X>X",
">X>X>X>X>X>X>X>X>X>X>X>Xu u u u i w.W.~.(.`.{.+X&X*X;X;X:X:X:X:X;X-X*X*X$X+X].(.~.!.W.Y.Y.;.K A u u u u u D u u u >X>X>X>X>X>X>X",
">X>X>X>X>X>X>X>X>X>X>X>X>X>X>X>X>X>X>X>X>X>X>X>X>X>X>X>X>X>X>X>X>X>X>X>X>X>X>X>X>X>X>X>X>X>X>X>X>X>X>X>X>X>X>X>X>X>X>X>X>X>X>X>X",
">X>X>X>X>X>X>X>X>X>X>X>X>X>X>X>X>X>X>X>X>X>X>X>X>X>X>X>X>X>X>X>X>X>X>X>X>X>X>X>X>X>X>X>X>X>X>X>X>X>X>X>X>X>X>X>X>X>X>X>X>X>X>X>X",
">X>X>X>X>X>X>X>X>X>X>X>X>X>X>X>X>X>X>X>X>X>X>X>X>X>X>X>X>X>X>X>X>X>X>X>X>X>X>X>X>X>X>X>X>X>X>X>X>X>X>X>X>X>X>X>X>X>X>X>X>X>X>X>X",
">X>X>X>X>X>X>X>X>X>X>X>X>X>X>X>X>X>X>X>X>X>X>X>X>X>X>X>X>X>X>X>X>X>X>X>X>X>X>X>X>X>X>X>X>X>X>X>X>X>X>X>X>X>X>X>X>X>X>X>X>X>X>X>X"
};
