/* XPM */
static char *result[] = {
/* columns rows colors chars-per-pixel */
"64 64 120 2 ",
"   c #2C3E50",
".  c #2F4152",
"X  c #314355",
"o  c #364758",
"O  c #3C4D5D",
"+  c #435464",
"@  c #475867",
"#  c #4B5B6A",
"$  c #51606F",
"%  c #556473",
"&  c #586775",
"*  c #5A6876",
"=  c #5D6C79",
"-  c #606F7C",
";  c #62707D",
":  c #C03A2B",
">  c #C74C27",
",  c #C44429",
"<  c #C64928",
"1  c #DC6C25",
"2  c #DF7E20",
"3  c #E27623",
"4  c #E67E22",
"5  c #C65347",
"6  c #C85B4F",
"7  c #E9861E",
"8  c #E38C1D",
"9  c #E98B1E",
"0  c #EF9417",
"q  c #EA931C",
"w  c #EB9C1A",
"e  c #F19615",
"r  c #F39C12",
"t  c #F1BE0F",
"y  c #E6A416",
"u  c #ECA617",
"i  c #E7A815",
"p  c #EBAB15",
"a  c #ECA218",
"s  c #F3A212",
"d  c #F2AB11",
"f  c #EFB413",
"g  c #EFB912",
"h  c #F2B410",
"j  c #F1BC10",
"k  c #F0BF1E",
"l  c #E78421",
"z  c #E88320",
"x  c #F1C40F",
"c  c #F1C211",
"v  c #F1C61C",
"b  c #F1C520",
"n  c #F1C825",
"m  c #F0C92B",
"M  c #F0CB33",
"N  c #F0CD3D",
"B  c #E6BD72",
"V  c #EFC943",
"C  c #EFCD4E",
"Z  c #F0CF46",
"A  c #F0CF49",
"S  c #F0D04E",
"D  c #EFD255",
"F  c #EFD35C",
"G  c #F0D254",
"H  c #EFD565",
"J  c #EFD66B",
"K  c #EFD771",
"L  c #EFD874",
"P  c #EFDA7C",
"I  c #677581",
"U  c #687683",
"Y  c #6B7885",
"T  c #6F7C88",
"R  c #717E8A",
"E  c #74808C",
"W  c #7A8691",
"Q  c #7D8994",
"!  c #85909A",
"~  c #8C97A1",
"^  c #929DA5",
"/  c #9AA4AC",
"(  c #9FA9B1",
")  c #ACB5BC",
"_  c #E6C28A",
"`  c #EFDB84",
"'  c #EEDC8C",
"]  c #EEDE92",
"[  c #EEDF9A",
"{  c #EEE09F",
"}  c #EEE2A6",
"|  c #EEE2AA",
" . c #EEE4B2",
".. c #EDE5BB",
"X. c #B4BCC2",
"o. c #BDC4CA",
"O. c #C1C9CD",
"+. c #C6CDD1",
"@. c #C8CED3",
"#. c #CCD2D6",
"$. c #D4DADD",
"%. c #E8DEDE",
"&. c #EDE7C3",
"*. c #EDE8C7",
"=. c #EDE9CD",
"-. c #EDEAD3",
";. c #EDECDB",
":. c #D7DDE0",
">. c #D9DFE1",
",. c #DDE3E5",
"<. c #E0E5E7",
"1. c #E9E2E2",
"2. c #ECEDE5",
"3. c #E2E7E8",
"4. c #E5E9EB",
"5. c #EBEEED",
"6. c #ECF0EF",
"7. c #EBEFF0",
"8. c #ECF0F1",
"9. c None",
/* pixels */
"9.9.9.9.9.9.9.9.9.9.9.9.9.9.9.9.9.9.9.9.9.9.9.9.9.9.9.9.9.9.9.9.9.9.9.9.9.9.9.9.9.9.9.9.9.9.9.9.9.9.9.9.9.9.9.9.9.9.9.9.9.9.9.9.",
"9.9.9.9.9.9.9.9.9.9.9.9.9.9.9.9.9.9.9.9.9.9.9.9.9.9.9.9.9.9.9.9.9.9.9.9.9.9.9.9.9.9.9.9.9.9.9.9.9.9.9.9.9.9.9.9.9.9.9.9.9.9.9.9.",
"9.9.9.9.9.9.9.9.9.9.9.9.9.9.9.9.9.9.9.9.9.9.9.9.9.9.9.9.9.9.9.9.9.9.9.9.9.9.9.9.9.9.9.9.9.9.9.9.9.9.9.9.9.9.9.9.9.9.9.9.9.9.9.9.",
"9.9.9.9.9.9.9.9.9.9.9.9.9.9.9.9.9.9.9.9.9.9.9.9.9.9.9.9.9.9.9.9.9.9.9.9.9.9.9.9.9.9.9.9.9.9.9.9.9.9.9.9.9.9.9.9.9.9.9.9.9.9.9.9.",
"9.9.9.9.9.9.9.9.9.9.9.9.9.9.9.9.9.9.9.9.9.9.9.9.9.9.9.9.9.9.9.9.9.9.9.9.9.9.9.9.9.9.9.9.9.9.9.9.9.9.9.9.9.9.9.9.9.9.9.9.9.9.9.9.",
"9.9.9.r 9.9.9.9.9.9.9.9.9.9.9.9.9.9.9.9.9.9.9.9.9.9.9.9.9.9.9.9.9.9.9.9.9.9.9.9.9.9.9.9.9.9.9.9.9.9.9.9.9.9.9.9.9.9.9.9.r 9.9.9.",
"9.9.9.r r r r 9.9.9.9.9.9.9.9.9.9.9.9.9.9.9.9.9.9.9.9.9.9.9.9.9.9.9.9.9.9.9.9.9.9.9.9.9.9.9.9.9.9.9.9.9.9.9.9.9.9.r r r r 9.9.9.",
"9.9.9.r r r r r r r 9.9.9.9.9.9.9.9.9.9.9.9.9.9.9.9.9.9.9.9.9.9.9.9.9.9.9.9.9.9.9.9.9.9.9.9.9.9.9.9.9.9.9.9.r r r r r r r 9.9.9.",
"9.9.9.r r r r r r r r r r 9.9.9.9.9.9.9.9.9.9.9.9.9.9.9.9.9.9.9.9.9.9.9.9.9.9.9.9.9.9.9.9.9.9.9.9.9.9.r r r r r r r r r 9.9.9.9.",
"9.9.9.9.r r r r r r r r r r r r 9.9.9.9.9.9.9.9.9.9.9.9.9.9.9.9.9.9.9.9.9.9.9.9.9.9.9.9.9.9.9.9.r r r r r r r r r r r r 9.9.9.9.",
"9.9.9.9.r r r r d r r r r r r r r r r 9.9.9.9.9.9.9.9.9.9.9.9.9.9.9.9.9.9.9.9.9.9.9.9.9.9.r r r r r r r r r r d r r r r 9.9.9.9.",
"9.9.9.9.r r r r j j h d s r r r r r r r r r 9.9.9.r r r r r r r r r r r r r r 9.9.9.r r r r r r r r r s d h x h r r r r 9.9.9.9.",
"9.9.9.9.r r r r h x x x j h d r r r r r r r r r r r r r r r r r r r r r r r r r r r r r r r r r s d h t x x x h r r r r 9.9.9.9.",
"9.9.9.9.r r r r d x x x x x x x h d r r r r r r r r d d h t t h h h t h d s r r r r r r r r d h t x x x x x x s r r r 9.9.9.9.9.",
"9.9.9.9.9.r r r s x x x x x x x x x x h d r s d h t x x x x x x x x x x x x t h d s s d h x x x x x x x x x x r r r r 9.9.9.9.9.",
"9.9.9.9.9.r r r r t x x x x x x x x x x x j t x x x x x x x x x x x x x x x x x x j t x x x x x x x x x x x t r r r r 9.9.9.9.9.",
"9.9.9.9.9.r r r r t x x x x x x x x x x x x x x x x x x x x x x x x x x x x x x x x x x x x x x x x x x x x h r r r r 9.9.9.9.9.",
"9.9.9.9.9.r r r r d x x x x x x x x x x x x x x x x x x x x x x x x x x x x x x x x x x x x x x x x x x x x d r r r 9.9.9.9.9.9.",
"9.9.9.9.9.9.r r r s x x x x x x x x x x x x x x x x x x x x x x x x x x x x x x x x x x x x x x x x x x x x s r r r 9.9.9.9.9.9.",
"9.9.9.9.9.9.r r r r x x x x x x x x x x x x x x x x x x x x x x x x x x x x x x x x x x x x x x x x x x x x r r r r 9.9.9.9.9.9.",
"9.9.9.9.9.9.r r r r t x x x x x x x c c x x x x x x x x x x x x x x x x x x x x x x x x c x x x x x x x x h r r r r 9.9.9.9.9.9.",
"9.9.9.9.9.9.r r r r h x x x x x x c m G P ` K N v x x x x x x x x x x x c c x v Z L ` P S n x x x x x x x d r r r r 9.9.9.9.9.9.",
"9.9.9.9.9.9.9.r r r d x x x x x n [ ;.8.8.8.8.6.=.F x x x x x x x x x x x c J -.5.8.8.8.8.;.' b x x x x x s r r r 9.9.9.9.9.9.9.",
"9.9.9.9.9.9.9.r r r s x x x x N -.8.8.8.5.6.8.8.6.6.{ v x x x x x x x x v | 8.8.8.7.8.7.8.8.8.*.m x x x x s r r r 9.9.9.9.9.9.9.",
"9.9.9.9.9.9.9.r r r s x x x n ;.8.8.$.) <.8.#.X.4.8.8.' c x x x x x x x } 8.8.4.) $.8.<.) :.7.7.=.v x x x r r r r 9.9.9.9.9.9.9.",
"9.9.9.9.9.9.9.r r r h x x x | 8.8.) # 3.8.8.8.( = ,.8.8.Z x x x x x x H 8.8.:.% X.8.8.8.>.# O.7.8.] x x x h r r r 9.9.9.9.9.9.9.",
"9.9.9.9.9.9.9.r r s x x x M 6.8.#.o R 6.8.8.8.<.  U 7.8. .x x x x x x *.6.4.& . 4.8.7.7.7.& O $.8.6.n x x x s r r 9.9.9.9.9.9.9.",
"9.9.9.9.9.9.9.r r h x x c P 8.8.Y   * 6.8.8.8.#.    O.8.6.v x x x x m 6.6.)   . $.8.8.5.7.#   ! 8.8.F x x x h r r 9.9.9.9.9.9.9.",
"9.9.9.9.9.9.r r s x x x x | 8.8.O   . ) 5.7.<.-     ^ 8.8.Z x x x x D 8.6.E .   R 4.8.5./     @ 8.8.` x x x x r r r 9.9.9.9.9.9.",
"9.9.9.9.9.9.r r s x x x x  .8.8..     X ; W @       Q 8.7.Z x x x c H 8.8.;       $ ! *         8.8.] x x x x s r r 9.9.9.9.9.9.",
"9.9.9.9.9.9.r r h x x x x } 6.8.O                   ^ 8.8.N x x x x D 8.8.E                   @ 8.8.P x x x x d r r 9.9.9.9.9.9.",
"4 4 9.9.9.9.r r t x x x x L 8.8.R                   +.8.5.v x x x x v 6.8.)                   ^ 8.8.G x x x x h r r 9.9.9.9.4 4 ",
"4 4 4 4 9.e r r x x x x x n 2.8.$.O               R 7.7.{ x x x x x x ..6.6.- .             + >.8.2.v x x x x j r r e 9.4 4 4 4 ",
"9.4 4 4 4 7 9 e t x x x x c ] 8.7.o.+         X Y 3.7.4.M x x x x x x Z 6.6.,.= X         @ @.8.8.L x x x x x c 0 7 4 4 4 4 9.9.",
"9.9.9.9.4 4 4 4 8 u g x x x v &.7.7.>.^ * $ Y X.7.7.;.B i i i i p p p p _ 3.6.,.) U $ - / ,.7.7. .v x x c j a l 4 4 4 4 9.9.9.9.",
"9.9.9.9.9.e 9 7 4 4 l q f c c n ..8.8.8.8.5.8.6.7.5.5 : : , : : : : : : , 6 6.8.7.7.5.8.7.7.8. .v c j d l l 4 l 7 0 e 9.9.9.9.9.",
"9.9.9.9.9.r r r d w l 4 l l a g v P -.6.8.8.8.2...Z : : : : : : : : : : : , C ..5.5.7.7.5.-.H v g w l 4 4 l w h r r r 9.9.9.9.9.",
"9.9.9.9.9.r r r j c j u l l l l 9 p b N H K F M c c i < : : : : : : : : > p x v M F K H N k u 9 l 4 l q f c x j r r 9.9.9.9.9.9.",
"9.9.9.9.9.9.e r h c c c c h w z 4 4 z w h c x x x x x i , : : : : : : < p x x x c x c f q 7 4 4 l a g c g j c d r r 9.9.9.9.9.9.",
"4 4 4 4 4 4 z z z z 8 7 l l z l 4 4 4 4 4 9 u t x x x x y : : : : : < p x x x x j a 8 4 4 4 4 4 l l l l l 8 l z 4 z 4 4 4 4 4 4 ",
"4 4 4 4 4 4 z 4 l l l l l 7 z l 4 4 4 4 4 l q f x x x x x l : : : : 8 x x x x x f q l 4 l 4 4 4 l z l 8 l z 7 7 z 4 4 4 4 4 4 4 ",
"9.9.9.9.9.9.e r e h j j g g u 8 4 4 l 9 a j x c x x x x x 8 1 , : 1 w x x x x x x x j a l l 4 4 l u j g c j h r r r 9.9.9.9.9.9.",
"9.9.9.9.9.9.9.r r d x h a 7 4 4 4 l p c x x x x x x x x x q 4 1 1 4 w x x x x x x x c x c p 9 4 l l l q g j s r r 9.9.9.9.9.9.9.",
"9.9.9.9.9.9.9.r e 0 w 7 4 l 9 a 4 l w x x x x x x x x x x q 4 l 7 l q x x x x x x x x x x 9 l l u l l 4 l q 9 e r 9.9.9.9.9.9.9.",
"9.9.9.9.9.9.9.9 7 4 4 7 w p c x 8 4 7 c x x x x x x x x x l 4 9 8 4 l x x x x x x x x x c l 4 9 c x f w l l 4 l z 9.9.9.9.9.9.9.",
"9.9.9.9.9.4 4 4 4 7 9 h x x x x q 4 4 f x x x x x x x x u 4 4 u w 4 l p x x x x x x x x u 4 4 u c x x x d 0 7 l 4 4 4 9.9.9.9.9.",
"9.9.4 4 4 4 4 4 9.r r s t x x x j l 4 l g x x x x x x f l 4 l g g l 4 l g x x x x x x f 7 4 l g x x x j s r r 9.4 4 4 4 4 4 9.9.",
"4 4 4 4 4 9.9.9.9.r r r d x x x c w 4 4 7 u j c g g u 7 4 4 u x x w 4 4 l u j c c g u l 4 4 u x x x x d r r r 9.9.9.9.4 4 4 4 4 ",
"4 4 4 9.9.9.9.9.9.9.r r r d x x x x q 4 4 4 7 q q l 4 4 l w x x x x q l 4 4 z q q z 4 4 4 w x x x x d r r r 9.9.9.9.9.9.9.9.4 4 ",
"9.9.9.9.9.9.9.9.9.9.9.r r r d x x x x a z 4 4 4 4 4 4 l u x x x x x c a z 4 4 4 4 4 4 z u x x x t d r r r 9.9.9.9.9.9.9.9.9.9.9.",
"9.9.9.9.9.9.9.9.9.9.9.9.r r r d x x x x j a q 9 9 q a g x x x x x x x x j w q 8 9 q a j x x x x d r r r 9.9.9.9.9.9.9.9.9.9.9.9.",
"9.9.9.9.9.9.9.9.9.9.9.9.9.r r r s h x x c x c x x x x x x x x x x x x x x c x x x c x x x x h s r r r 9.9.9.9.9.9.9.9.9.9.9.9.9.",
"9.9.9.9.9.9.9.9.9.9.9.9.9.9.r r r r d x x x x x x x x x x x x x x x x x x x x x x x x x j d r r r r 9.9.9.9.9.9.9.9.9.9.9.9.9.9.",
"9.9.9.9.9.9.9.9.9.9.9.9.9.9.9.r r r r s d t x x x x x x x x x x x x x x x x x x x x j d s r r r r 9.9.9.9.9.9.9.9.9.9.9.9.9.9.9.",
"9.9.9.9.9.9.9.9.9.9.9.9.9.9.9.9.9.r r r r s d j c x x x x x x x x x x x x x x t h d s r r r r 9.9.9.9.9.9.9.9.9.9.9.9.9.9.9.9.9.",
"9.9.9.9.9.9.9.9.9.9.9.9.9.9.9.9.9.9.r r r r r r s d h h j j x t x x j j h h d s r r r r r r 9.9.9.9.9.9.9.9.9.9.9.9.9.9.9.9.9.9.",
"9.9.9.9.9.9.9.9.9.9.9.9.9.9.9.9.9.9.9.9.r r r r r r r r r s r d s s s r r r r r r r r r 9.9.9.9.9.9.9.9.9.9.9.9.9.9.9.9.9.9.9.9.",
"9.9.9.9.9.9.9.9.9.9.9.9.9.9.9.9.9.9.9.9.9.9.9.r r r r r r r r r r r r r r r r r r 9.9.9.9.9.9.9.9.9.9.9.9.9.9.9.9.9.9.9.9.9.9.9.",
"9.9.9.9.9.9.9.9.9.9.9.9.9.9.9.9.9.9.9.9.9.9.9.9.9.9.9.r r r r r r r r r r 9.9.9.9.9.9.9.9.9.9.9.9.9.9.9.9.9.9.9.9.9.9.9.9.9.9.9.",
"9.9.9.9.9.9.9.9.9.9.9.9.9.9.9.9.9.9.9.9.9.9.9.9.9.9.9.9.9.9.9.9.9.9.9.9.9.9.9.9.9.9.9.9.9.9.9.9.9.9.9.9.9.9.9.9.9.9.9.9.9.9.9.9.",
"9.9.9.9.9.9.9.9.9.9.9.9.9.9.9.9.9.9.9.9.9.9.9.9.9.9.9.9.9.9.9.9.9.9.9.9.9.9.9.9.9.9.9.9.9.9.9.9.9.9.9.9.9.9.9.9.9.9.9.9.9.9.9.9.",
"9.9.9.9.9.9.9.9.9.9.9.9.9.9.9.9.9.9.9.9.9.9.9.9.9.9.9.9.9.9.9.9.9.9.9.9.9.9.9.9.9.9.9.9.9.9.9.9.9.9.9.9.9.9.9.9.9.9.9.9.9.9.9.9.",
"9.9.9.9.9.9.9.9.9.9.9.9.9.9.9.9.9.9.9.9.9.9.9.9.9.9.9.9.9.9.9.9.9.9.9.9.9.9.9.9.9.9.9.9.9.9.9.9.9.9.9.9.9.9.9.9.9.9.9.9.9.9.9.9.",
"9.9.9.9.9.9.9.9.9.9.9.9.9.9.9.9.9.9.9.9.9.9.9.9.9.9.9.9.9.9.9.9.9.9.9.9.9.9.9.9.9.9.9.9.9.9.9.9.9.9.9.9.9.9.9.9.9.9.9.9.9.9.9.9."
};
