/* XPM */
static char *result[] = {
/* columns rows colors chars-per-pixel */
"64 64 231 2 ",
"   c #071C04",
".  c #0A2306",
"X  c #0E290B",
"o  c #112C0C",
"O  c #0F3008",
"+  c #14340C",
"@  c #163B0B",
"#  c #193C0D",
"$  c #142D11",
"%  c #163311",
"&  c #193513",
"*  c #1B3C13",
"=  c #1C3A18",
"-  c #223E1B",
";  c #253E21",
":  c #17410A",
">  c #1B440D",
",  c #1D4B0C",
"<  c #144007",
"1  c #1F520C",
"2  c #1D4313",
"3  c #1F4A12",
"4  c #1F401A",
"5  c #20460E",
"6  c #214C0E",
"7  c #294F0F",
"8  c #23540D",
"9  c #29550F",
"0  c #255A0D",
"q  c #295C0E",
"w  c #214614",
"e  c #234B13",
"r  c #284E14",
"t  c #23441B",
"y  c #254B1A",
"u  c #2A4D1B",
"i  c #28461D",
"p  c #255313",
"a  c #295414",
"s  c #265912",
"d  c #2B5C14",
"f  c #265219",
"g  c #2A531B",
"h  c #2D5B1B",
"j  c #315D14",
"k  c #325D1B",
"l  c #30561A",
"z  c #26620B",
"x  c #2B640D",
"c  c #2D6B0D",
"v  c #31660F",
"b  c #316D0E",
"n  c #2E710B",
"m  c #33740D",
"M  c #367A0D",
"N  c #397D0E",
"B  c #3A720F",
"V  c #2D6313",
"C  c #2E6A11",
"Z  c #2E611A",
"A  c #326414",
"S  c #346C14",
"D  c #3A6D15",
"F  c #33641B",
"G  c #39651B",
"H  c #356B1A",
"J  c #3B6C1B",
"K  c #396516",
"L  c #357213",
"P  c #3A7414",
"I  c #367A11",
"U  c #3B7B13",
"Y  c #377219",
"T  c #3C731B",
"R  c #3D7B1A",
"E  c #264522",
"W  c #2A4B23",
"Q  c #294825",
"!  c #324D2B",
"~  c #2D5322",
"^  c #2E5B21",
"/  c #2F5628",
"(  c #315424",
")  c #325B23",
"_  c #33532C",
"`  c #345B29",
"'  c #395C29",
"]  c #3B5834",
"[  c #346224",
"{  c #3A6323",
"}  c #366A22",
"|  c #3B6C23",
" . c #366328",
".. c #3C642A",
"X. c #3C6B2C",
"o. c #3D7323",
"O. c #3E7625",
"+. c #3C6832",
"@. c #416E1C",
"#. c #417B14",
"$. c #42741C",
"%. c #437C1C",
"&. c #4A7C1C",
"*. c #437816",
"=. c #40720F",
"-. c #416B28",
";. c #427423",
":. c #447B23",
">. c #4B7C24",
",. c #44742B",
"<. c #447B2A",
"1. c #4A7C2D",
"2. c #4B742A",
"3. c #446737",
"4. c #437434",
"5. c #4A7333",
"6. c #467A33",
"7. c #4A7B32",
"8. c #49723C",
"9. c #527C34",
"0. c #587C3E",
"q. c #507826",
"w. c #557D44",
"e. c #547050",
"r. c #3D820E",
"t. c #3E8B0B",
"y. c #378108",
"u. c #3D8213",
"i. c #3F801A",
"p. c #41840D",
"a. c #438C0E",
"s. c #49980E",
"d. c #438415",
"f. c #448B13",
"g. c #4A8C15",
"h. c #44831B",
"j. c #4A831B",
"k. c #468B1A",
"l. c #4A8C1C",
"z. c #4B8216",
"x. c #548D1A",
"c. c #58881C",
"v. c #4B9314",
"b. c #4D9A13",
"n. c #4D931B",
"m. c #489416",
"M. c #539B15",
"N. c #53951C",
"B. c #59931E",
"V. c #539C1C",
"C. c #539518",
"Z. c #639719",
"A. c #56A119",
"S. c #5CA61C",
"D. c #5BA916",
"F. c #50A00F",
"G. c #68AA1B",
"H. c #6AB717",
"J. c #458222",
"K. c #4A8424",
"L. c #4D8C23",
"P. c #4C832B",
"I. c #4D8C2A",
"U. c #468626",
"Y. c #538C24",
"T. c #53842A",
"R. c #538C2A",
"E. c #578B25",
"W. c #4E9323",
"Q. c #4F9228",
"!. c #549323",
"~. c #559A23",
"^. c #5A9C24",
"/. c #53922C",
"(. c #5A9729",
"). c #4C8232",
"_. c #4F8935",
"`. c #548535",
"'. c #548C34",
"]. c #568D3B",
"[. c #568637",
"{. c #5A9433",
"}. c #5B9A33",
"|. c #5C943B",
" X c #5D9B3A",
".X c #649E27",
"XX c #638F31",
"oX c #659B3A",
"OX c #5BA222",
"+X c #5DA027",
"@X c #63A42B",
"#X c #67A728",
"$X c #67B226",
"%X c #69A838",
"&X c #73A93B",
"*X c #74B23A",
"=X c #72B725",
"-X c #7FC71B",
";X c #5C8845",
":X c #5D9244",
">X c #5E8553",
",X c #5F9250",
"<X c #608B48",
"1X c #669847",
"2X c #698B5B",
"3X c #6B9557",
"4X c #759B53",
"5X c #6AA146",
"6X c #71A946",
"7X c #79B549",
"8X c #77A55A",
"9X c #7CB359",
"0X c #7E9A78",
"qX c #718B6E",
"wX c #7BAA64",
"eX c #81B654",
"rX c #86AB7A",
"tX c #8AB56F",
"yX c #89C24A",
"uX c #A7D56C",
"iX c #9EB89E",
"pX c #90AA90",
"aX c #9EB1A3",
"sX c #A4B9A6",
"dX c #87998D",
"fX c #AFC3B5",
"gX c #BFCDC6",
"hX c #C6DAC9",
"jX c #D0DDD9",
"kX c #D9E8E1",
"lX c None",
/* pixels */
"lXlXlXlXlXlXlXlXlXlXlXlXlXlXlXlXlXlXlXlXlXlXlXlXlXlXlXlXlXlXlXlXlXlXlXlXlXlXlXlXlXlXlXlXlXlXlXlXlXlXlXlXlXlXlXlXlXlXlXlXlXlXlXlX",
"lXlXlXlXlXlXlXlXlXlX; lXlXlX; lXG k lXlXT.XXlXlXlXq.lXH.lX-.K.lXlXlXlXlXlXlXlXlXlXZ.lXlXlXlXlXZ.lXlXlXlXlX5.9.9.;.lXlXlXlXlXlXlX",
"lXlXlX9.-.K.>.c.lXlXi ( ] ] E F J ( D lX5.K ;.( $.lX$.>.>.k J lXE.9...lXXX`.) J @.G '.2.>.E.#Xd.B.B.j.G.%X0.-.3.K.B.:.@X&XlXlXlX",
"lXlX2...-.7 K &.&.' r u l J | w ! F D z.&.l w $.&.j.x.j.$.@.k @.C.;.{ -.D K.| 2.y {.x.v.S.S d u.x.D T x.R.z.a k 7.1.G d .X4X5XlX",
"lXlXlXd 6 > r T T a d 6 5 9 p y % 6 F P *.2 2 u ;.&.d A h Y.%._.o.;.F V 8 s 6 w D j.S.v.U 9 > c 8 , x d.P j w A K.d *.M.&.B.T.{.",
"lXlXlX#.S i r A 9 a A p a r h E & * ( T :.h Z a k k # r } L s r a N.S 6 a 9 G &.D.b V I z , o a d + 5 v eX3XqXk I a J p.j.B.oXlX",
"lXlXlX5.h - F S 7 a 3 3 Z V F + w % w } 8 Y h.A a > * >.| e H # r l.a l XX*.T.%Xn M R O.* # o e * o * - jXhXhXu H r 8 P ~..XoXlX",
"lXlXlXT l > 9 V 8 q > + p , V f s 2 + p p 8 h.s 6 o * A #.2 2 o & 2 { 2XU.S R.%.c a.T a * w V e * r 5 e 2XsXaX3.g ) a L j.6XlXlX",
"lXlXlX-.> 2 , 1 s 8 8 # > : s 1 s p O O 1 1 z 1 @ > | / , # o g y X ..kX2X+.8 g.r.b.x , $ y | a 2 V  .3 3 2XhX;XA a U.a T #XlXlX",
"lX' lXk t o > 3 s : , > + p p @ 1 1 p X , p 0 1 1 h h 4 p 8 a V.d X W dXkXsX> d M q 8 + 2 p _ w # # d # Z I i.s 2 y ` g Z h.lXlX",
"lX..k k w # O : # 6 @ 3 3 : , @ , > , : 1 1 @ 0 s p s y A @ D P }.r ) dXsXA d h ^ 2 6.w A F = % S . Z s J.f f = 4 W X.,.`.oXlXlX",
"lXlX{ d d 5 , O > > , 2 2 1 : , , < , O @ 1 : 0 : p d 8 8 9 q F } 2 o qXtX9 P #._.F p w W.f.a 2 V p.} f z x u.6.^ Z K.Q.o.*X%XlX",
"lXlX5.k ~ 2 > s , , @ : + 1 @ 3 @ 1 < O , 1 , : 4 > + d.R S f.W.n.L S T f.t.s.a.U.:.1 I J.L 3 ~ A 0 h 2 d , R 4.F c m.P.[ 9.lXlX",
"lXlX2.{ f 3 f p 1 1 , , @ , p : 1 1 1 < 0 : z : s , O F o.1 d K.a S R !.+XN y.D.k.H.L s 0 @XO.2 * p C.s 7Xp I V.1 n M.%.C.%X5.#X",
"lXlXlX-.2 4 2 ^ Z 1 : , < s 3 1 < 1 1 1 1 z 2 H , , V u.f 2 A , + = h ~.k.r.t.D.m.F.m.l.c i.8.f / 2 e  .W.b U s O.D.x T.@XeX&XlX",
"lXlX*.V 1 f o 2 : ^ s , 1 : s : , @ , 0 1 H , p S q P } [.U.b.o $ 2 S.n.b.k.s.0 a.f.I.n.0 3 3 2 $ y # %XP.3 i.p f.OXR.x {.yXlXlX",
"lX#XU x , q > , : 2 4 s p , 1 1 3 : : s V s 1 0 I C I Y m.L.A & x > M.r.A.A.R V x 8 T H V p %.h r g.R D.;X~ ,.T m.k.A h.Y.@XlXlX",
"lXlXA 9 6 s a s Z ^ h p p s 1 1 : 3 , 2 > , 3 3 x x C V R V w p > s m., ^ P.F j.e , h.0 f.S k.t.b.R a.v.@X;.L u.L.#XU.P OX=X-XlX",
"lXlX..G 8 3 p Z F Z d 3 z Y > C , + p h F 1 1 : f.H V i.x 2 p l.S 3 @ k <.d # [ T 9 8 p z I v.k.R a.N m v.M.c k.I %XI I d.OX=XlX",
"lXlXT J p p p d p p Y L Y F.V R p } Z 3 C C R L C S Q.Q.h.A l.~.Y # @ V Y.I c 2 2 H 8 m c R n.S d s r.V.O.-.S I I.!.z f.r.V.lXlX",
"lXlX9.$.A > , , , V w A.M z C C J.o.F 6 z i.n.C V s 1 o. X}.:.L.h.6 # 2 2 @ O A }.y A.i.S Y V.T a 3 C t.I Y h.h.}.(.M v.n.V.-XlX",
"lXlX-.w.J 3 2 ~ * <.F A d 3 p p R s H R 0 z Y h 1 f 1 H K.h | h S 0 p F ' 5 A z.y ^ Y {.| y J.3 s e C k., g.n.e  X].#.U {.%XlXlX",
"lXlXT.J.e * V C 8 x R L V +.f # 8 V U s c I s i.o.f 3 > c H ;.2 > @ d :.} !.X.b /.O.1 u.o.p A I.y f I.i.s L R d } f H C oXeXlXlX",
"lXlXR.T h $ 3 L 6 2 8 1 d ~ a ;.Y.P L d L Y n.k.L 3X,X4.V k.S r.l.> + * 2 h > r.M.f 2 # 6.X.h o.2 T /.U.f o.}.+XC ~ ) G 9.*XyXuX",
"lXlXlXk P g * d m > * f F P P {.^.L.a e G Y.:XZ h.Q iX2Xk.d.a 8 :.> 6 V s :.F o 2 Z t P <.:.f W = p }.Y } '.I.U.g g T +X>.8X*XuX",
"lX3.' B A 2 t W & 2 R K.h.L d h.!.A 3 2 p J ] # g & tXhXwXF >.h N.# x : p.n.d b : O.h.O.$Xl.R ].g %X~.h.Y /.z V F %.L R ;.1XtXlX",
"lX5.-.k i 2 & * e a p U.R #.S f.c b.k.q s w $ * . > ,XpX3X3 % >XhXk L g s x c , V h.R m.m.T 2 1.).}.+Xd y u.C h.6.<.| d F $.lXlX",
"lXlXlXT.P D 0 8 V a g A R m b u.u.x m , y i * + # o i.D.b.c d 8XwXl.V p q H L h J V n.m.k.u.3 I.V.6X<.V x L C k.o.Q / +.].lXlXlX",
"lXlXlXg.L x r.A R.P.V R %.8 w S V p c 8 F ^ f o P g k.F c m S I.n.u.0 c x J.l.m.OXU.OXn V.f.Z H P.T I S n L L k.o.;.K.,.XX8XlXlX",
"lXlXN.L.Z %.N.F T /.d.U S , p S p 3 * #.J Y OXt S h.f V 0 z q k.n.I 1 s 0 s.f.m.6.*X$Xc h.V.S R o.S L S x Z h.m.n.} H.C.eXlXlXlX",
"lXlX[ J ;.a J } g 3 d I U S S s V r.8 a i.d.J.[ X * k g.m g.:.R 6Xn k.%.L u.I C V.%XV.C '.~.m.P $XH p L h.V T } J U.D.z R.^.`.lX",
"lXlX;.J d 6 W Q g 2 U.l.H 0 9 F F K.h.A h.D.p @ + 3 0 8 J S V I u.C %XW.f O.H o.u.u.R p } o.s.d o.S L.V 9 OXP s s.n.<.1.&XlXlXlX",
"lXlXj.S v P J w * 2 I h.d 8 Y |.6.V f.g.L C V p > p  .u K.s c L 1 L.h y 2 I.L.N.u.x I S I.J.4.C R #Xl. XI.W.I M S.OXP.} W.lXG.lX",
"lXlXf.b 9 $.A 6 * p 0 C > d w ^ y p V ,.Z c f.d.9 r } F [ S n C I Y Z y  .U.P.%X+Xm.d.H  .h 4 p V.f.0 D.+X6XO.I.W.l.%X%X(.`.Y.lX",
"lXlX{.| q x N 8 n A.z > # p.a h.q A K.<.Y n f.k.h.o.P.R.J.D.C I M M.F Z h g d (.@XV m.Z 6.f ) w 1.J., ~.k.|.].'.g y 9X6Xl.N.G.lX",
"lXlXE.oX@.8 V f.m M V U A.Z 2 H R P l.,.W.m.f.j.R.R.U.%.F s m.i.s s V h +.` = K.1XF k.L ~.!.!.d.8 L.T H U.1XX.a w  .'.oX[.' ] lX",
"lXlXlXV.J y 3 H Y 8 Z S h.I.d a B 8 8 p l.V.n.A Z [.Z R o.R o.o.Z p OXF ^ = = ' } Y L.H f.h.T S T P.} F V W. Xk u h R.:.<X3.] lX",
"lXlX;.T.^ g  .e 0 P :.R j.L 2 p :.m.p d Y.^.T G 2 k o.O.R o.T F 2 } n.m.Z g P t.f.u.a.m.z L.p o.k.b Y P.d R k.V.H x h ).' _ 3.] ",
"lXlX@.E.P a H p w L ;.U.U.V y p i.R H I h.x.F F S N R o.h f p h t } O.L S n.L.n M b.t.n I R H L.l.d p e H 8 J.K.C d s ) 3.3.1XlX",
"lXlXlX%.%.r a x h J h y h d s 1 > 0 c c c N s e z I R c ` <.:.o.g U.6.Z L m.^.n m Y W.L J F s | V h p e e o.A a 0 q :.{ [.lXlXlX",
"lXlXT.a.v F > z n c d.p h U n.e 2 U R n n t.Z L.W.L.I s / w f C s h.d.Z T L.OXf.z T ^.l.k.T I # > | K x..XJ + ( I.0 u.} U.@XlXlX",
"lXlXlXg.c V % s u.2 c g = R f.!.H d s J.(.n.h.l.^.n.V 2 2 r d I H L n.V (.W.L V p p -.(.I.U.u.v o 8 g.#.q , y D ^.c m T u K.lXlX",
"lXlXlXV.Y } w L q 1 z s L Y U.d.!.Y r (.(.H %.f.m.0 s V V h.k.R h O.K.L.h.b.C r 0 q # I e 2 X.0 > 8 T `.8XT.(.B m.M a r %.l.lXlX",
"lXlXlXlX<X%.h X.2 = } V p H C J.j.h.6 T P 8 n.k.i.h.f k :.%.:.J + 1.X.i.i.L p N.# @ K B.R o.D , < 0 #.B.B.@.j P U @X$.w ].&XlXlX",
"lXlXlXT.R.l.`.P.h = ` / g } d } T S D h.d | c I b.c e h s R F o.2 X.H o.i.R w a + 5 7 6 ;.E.I , : : 9 j.F * # z z # P.6.P.#XlXlX",
"lXlXlX6XXX{.:.:.h w 3 F T A w 8 % + R qXpXsXn M c g. .* % & g 7.2 ^ R | z } d a F G ].5X8X].V C 0 8 j j.*.A H q : > 6 <.A .XlXlX",
"lXlXlXj.T.#.a T.A a * e p e > @ 2 r w e.sX8.8 c c R a + % $ h 8._ ` g rX^ c p 5 l q.-.y >.oXQ.1 s I %.*.6 v d 7 > 9 =.*.D *.lXlX",
"lXlXlX&.#.F A T P U * * 2 * 2 5 0 8 d A rX| J p u.d.e * 2 ^ h t +.w.qXfXw.x q # & -.*.# &.&X[.h w K.6X# + 9 K T r > 5 A *.c.lXlX",
"lXlXlXoX&.K.V Y A c 3 6 * X % 3 % e # 8 9 9 #.8 v H # o S y H T [ 0XtXsXrXU v 5   5 D $.E.1XK.@., A eXk . o s >.`.j j 9 J v lXlX",
"lXlX! ' 1.| A T U + p 9 F p %  .T g F T e 2 o.L Z d e + H ~ 4 :.'.f ^ | D N 5 # k E.j.!.#.;.5Xa p , ;.e o + q $.-.K @ # 5 -.-.q.",
"lX' Q - ! ( S 6 d w w A D ~ e.` p v I h g 3 V p h.P F a # y Q ` / E p S H M # # j $.E.E.<.>.6.# f Z T H a # > > 8 6 . . 9 E.D Z.",
"lX( W W g F *., H h # t _ 0XrXX.g a t  .|.).O.F A H 2 , S ^ 4 W Y 3 3 2 d S w > 5 @.$.k 5 j f w > V P l.C.C.%.q 9 , + j c.#X*.c.",
"lXlX{.5. .g A # J k j J ;Xw.tXJ :.k e m OX).H : x Y s w J | o.$ S | k.X.t 2 g F + O 5 w $.j ~ f f y ,XK.*.p &.E.c.j 5 &.B.*.&.lX",
"lXlXj.S s 8 p.q d a q K S v P 2 J l.F p B x C 8 , 8 h = g %.k F p P.Y 2 y + S 8 q 7 a w u # ..Z h r %.P B q @ O 5 7 7 j &.@.2.lX",
"lXlXT 8 6 w 9 D H a + d g A D F 6 8 V L q L T s c S g 2 [ w ) h.} | r * p e a 9 9 w 7 G l l T.w F 5 $.z.%.9 8 # 5 5 @.$.&.K lXlX",
"lXlX*.P 8 G d e 5 T P D T g 1.$ W X S R q 2 p a I.C I A , 2 2 C 3 f ..h # e h.6 + o 7 k K =.@.5 &.. . D x.K 9 j u j 5.i ;.' lXlX",
"lXlXlX>.5 e d.k 9 j T #.%.r + = # + 8 x b 8 c x p a A v 9 e A * H x S D F F z.D : 6 @ # j &.K r l + o r j k G e u ( u 9 k K lXlX",
"lXlXlX' - i t r w A z.S d w y & # K 8 8 b T 6 6 e + x x x 6 V 2 g s %.:.V P :.C s v d # 5 @.j a + # % # a *.l > 5 # 6 5 r @.lXlX",
"lXlXlX2.3.t - = w v q # w a Z * w e 9 n p.v d 8 # * 2 V S a y ^ g w a r a A Y A F u.V , 0 6 > 9 7 t - w K :.D 5 x 6 8 =.A #.lXlX",
"lXlXlXq.-.- t w w k x i h k s i & - j k *.k S D , 6 j 9 A A A r F Q W i u H j P P D w b 9 6 9 j _ - Q - - r a a 5 9 q *.lXlXlXlX",
"lXlXlX>.;.6 j D ) ..lXlX! 3.D ' W lXlXlXH J @.j.M j k &.J lXlXD lX3.( k `.&.e #.x.D G j v K S %.-.t i W ) lX! ! Q lXK k @.lXlXlX",
"lXlXlXc.&.v v $.k lXlXlXlXlXlXlXlXlXlXlXlXlX2..X#.u lXlXlXlXlXlXlX( lXK D x.&.j.*.$.D D z.B.z.lXlXlXlXlXlXlXlXlXlXlXj 9 7 lXlXlX",
"lXlXlXlXlXj.*.&.lXlXlXlXlXlXlXlXlXlXlXlXlXlXlXlXlXlXlXlXlXlXlXlXlXlXlXY.lXlXlXlXlXlXz.T lXlXlXlXlXlXlXlXlXlXlXlXlXlXlX- lXlXlXlX",
"lXlXlXlXlXlXlXlXlXlXlXlXlXlXlXlXlXlXlXlXlXlXlXlXlXlXlXlXlXlXlXlXlXlXlXlXlXlXlXlXlXlXlXlXlXlXlXlXlXlXlXlXlXlXlXlXlXlXlXlXlXlXlXlX"
};
